D:\PredSim\limbproperties\Ratio80\Ratio80_IK_running_2.5.mot
version=1
nRows=4
nColumns=124
inDegrees=yes
endheader
                time	         pelvis_tilt	         pelvis_list	     pelvis_rotation	           pelvis_tx	           pelvis_ty	           pelvis_tz	       hip_flexion_r	     hip_adduction_r	      hip_rotation_r	        knee_angle_r	       ankle_angle_r	    subtalar_angle_r	         mtp_angle_r	       hip_flexion_l	     hip_adduction_l	      hip_rotation_l	        knee_angle_l	       ankle_angle_l	    subtalar_angle_l	         mtp_angle_l	    lumbar_extension	      lumbar_bending	     lumbar_rotation	          arm_flex_r	           arm_add_r	           arm_rot_r	        elbow_flex_r	          arm_flex_l	           arm_add_l	           arm_rot_l	        elbow_flex_l	glut_med1_r/activation	glut_med2_r/activation	glut_med3_r/activation	glut_min1_r/activation	glut_min2_r/activation	glut_min3_r/activation	semimem_r/activation	semiten_r/activation	bifemlh_r/activation	bifemsh_r/activation	    sar_r/activation	add_long_r/activation	add_brev_r/activation	add_mag1_r/activation	add_mag2_r/activation	add_mag3_r/activation	    tfl_r/activation	   pect_r/activation	   grac_r/activation	glut_max1_r/activation	glut_max2_r/activation	glut_max3_r/activation	iliacus_r/activation	  psoas_r/activation	quad_fem_r/activation	    gem_r/activation	   peri_r/activation	rect_fem_r/activation	vas_med_r/activation	vas_int_r/activation	vas_lat_r/activation	med_gas_r/activation	lat_gas_r/activation	 soleus_r/activation	tib_post_r/activation	flex_dig_r/activation	flex_hal_r/activation	tib_ant_r/activation	per_brev_r/activation	per_long_r/activation	per_tert_r/activation	ext_dig_r/activation	ext_hal_r/activation	glut_med1_l/activation	glut_med2_l/activation	glut_med3_l/activation	glut_min1_l/activation	glut_min2_l/activation	glut_min3_l/activation	semimem_l/activation	semiten_l/activation	bifemlh_l/activation	bifemsh_l/activation	    sar_l/activation	add_long_l/activation	add_brev_l/activation	add_mag1_l/activation	add_mag2_l/activation	add_mag3_l/activation	    tfl_l/activation	   pect_l/activation	   grac_l/activation	glut_max1_l/activation	glut_max2_l/activation	glut_max3_l/activation	iliacus_l/activation	  psoas_l/activation	quad_fem_l/activation	    gem_l/activation	   peri_l/activation	rect_fem_l/activation	vas_med_l/activation	vas_int_l/activation	vas_lat_l/activation	med_gas_l/activation	lat_gas_l/activation	 soleus_l/activation	tib_post_l/activation	flex_dig_l/activation	flex_hal_l/activation	tib_ant_l/activation	per_brev_l/activation	per_long_l/activation	per_tert_l/activation	ext_dig_l/activation	ext_hal_l/activation	 ercspn_r/activation	 ercspn_l/activation	 intobl_r/activation	 intobl_l/activation	 extobl_r/activation	 extobl_l/activation	
          0.28669947	        -10.34389795	          0.37998300	          2.01611349	          0.71674868	          0.90058386	         -0.00251148	          4.14644174	          2.38558130	          4.09265072	        -44.34499362	        -16.86374858	          9.83938642	         15.70017780	         37.29364146	          4.29202250	          1.26191636	        -32.07019623	         -0.26193778	         -1.40228916	          0.23370514	          3.48361881	         -1.94450007	          2.86362902	         -6.30520249	        -13.70986144	          8.78363938	         33.22141963	         -5.14179461	        -13.49248681	          5.99951043	         40.59413916	          0.08553614	          0.05007650	          0.06082390	          0.11845222	          0.09014814	          0.07503453	          0.08536919	          0.05012558	          0.05017653	          0.06088487	          0.30902923	          0.57461928	          0.33607224	          0.09043780	          0.05239988	          0.05003666	          0.96905391	          0.62416642	          0.18719467	          0.05040856	          0.05008229	          0.05003075	          0.56316179	          0.79982504	          0.39811000	          0.35089570	          0.10342263	          0.74552101	          0.05847587	          0.06339714	          0.05427357	          0.12447800	          0.14443612	          0.10042485	          0.14934268	          0.16913349	          0.16820266	          0.17787202	          0.08753912	          0.10649593	          0.17294671	          0.68795103	          0.62418020	          0.36436692	          0.25021699	          0.24386102	          0.07159367	          0.07683062	          0.11520211	          0.78361152	          0.09291034	          0.62242487	          0.05008031	          0.05290483	          0.05600306	          0.27943323	          0.36601064	          0.33151904	          0.27878199	          0.05038723	          0.06762799	          0.05224858	          0.32238839	          0.26723593	          0.27783237	          0.05009825	          0.05012021	          0.34316146	          0.05902514	          0.21934605	          0.05032169	          0.07770447	          0.07973737	          0.07086514	          0.06070811	          0.05998710	          0.09580311	          0.34951627	          0.05017722	          0.05006385	          0.06379993	          0.13345957	          0.06927275	          0.67714570	          0.80226101	          0.54189167	          0.08937972	          0.20979793	          0.22303963	          0.05000967	          0.05001025	          0.05236862	
          0.29243346	        -10.31074085	          0.33351812	          1.86910664	          0.73167746	          0.89869770	         -0.00260044	          4.75909237	          2.41434661	          3.91102914	        -46.06364764	        -16.36770249	          9.90809584	         14.57366354	         36.85256578	          4.40323048	          1.57725548	        -31.40899096	          0.03039001	         -1.70027356	          0.14386810	          3.53247452	         -1.93752354	          2.84638217	         -6.31645731	        -13.77123513	          8.69528529	         33.29647025	         -5.40047147	        -13.50931232	          5.84771283	         40.73451248	          0.07807748	          0.05005819	          0.05553369	          0.10814989	          0.08231428	          0.06852200	          0.08589254	          0.05017928	          0.05019121	          0.06822134	          0.29857547	          0.53934011	          0.37226073	          0.08263359	          0.05043517	          0.05003443	          0.97757659	          0.65656250	          0.19998144	          0.05019107	          0.05006220	          0.05003345	          0.51403888	          0.73006299	          0.36338815	          0.32032348	          0.09440990	          0.77855936	          0.05337927	          0.05786901	          0.05000882	          0.11363078	          0.13185137	          0.09166570	          0.13631769	          0.15439479	          0.15353939	          0.17670435	          0.07995335	          0.09721340	          0.22529379	          0.69291462	          0.66724194	          0.41666691	          0.29574660	          0.23459635	          0.07535860	          0.07056365	          0.11749266	          0.71528409	          0.08497725	          0.56814037	          0.05007188	          0.05018654	          0.06488755	          0.30283998	          0.39197109	          0.35631635	          0.28463875	          0.05031744	          0.06514167	          0.05261109	          0.34493629	          0.28035747	          0.28400721	          0.05008886	          0.05008795	          0.31326584	          0.05502599	          0.24469376	          0.05320273	          0.11076875	          0.11324125	          0.10398174	          0.05541462	          0.05476194	          0.11155217	          0.41082955	          0.18680550	          0.05023402	          0.16321539	          0.12181950	          0.06323083	          0.61811955	          0.73315533	          0.64112386	          0.08371250	          0.19150160	          0.20488355	          0.05001044	          0.05001191	          0.05406187	
          0.29816745	        -10.27640234	          0.29484229	          1.71142087	          0.74659177	          0.89650975	         -0.00268859	          5.44981636	          2.43253698	          3.72159496	        -47.81854667	        -15.70718866	          9.93842038	         13.52829071	         36.42930293	          4.52765059	          1.90488193	        -31.14740875	          0.66738531	         -2.01676732	          0.03490395	          3.58308048	         -1.93380097	          2.81948522	         -6.30759791	        -13.83629135	          8.61176223	         33.34229768	         -5.65133418	        -13.53054753	          5.70402838	         40.83535806	          0.07127050	          0.05004697	          0.05070899	          0.09881906	          0.07519031	          0.06259083	          0.08421857	          0.05017717	          0.05017824	          0.07527035	          0.27307865	          0.49897193	          0.34158266	          0.07550480	          0.05039924	          0.05002994	          0.98372649	          0.62974131	          0.20081887	          0.05010465	          0.05003625	          0.05002105	          0.46920051	          0.66638213	          0.33169383	          0.29241057	          0.08618209	          0.80247049	          0.05001165	          0.05282480	          0.05001060	          0.10372786	          0.12036251	          0.08367051	          0.12442874	          0.14094125	          0.14015462	          0.17714250	          0.07302762	          0.08873946	          0.28198618	          0.69039201	          0.70395198	          0.46547965	          0.35799251	          0.28592753	          0.18656526	          0.13901670	          0.18622883	          0.65289459	          0.07767862	          0.51858464	          0.05004792	          0.05026775	          0.05957976	          0.27659873	          0.40679603	          0.38511347	          0.29273006	          0.05037048	          0.06086789	          0.05052660	          0.37519887	          0.29984870	          0.29541741	          0.05008078	          0.05008566	          0.28596902	          0.05208896	          0.28727696	          0.05491092	          0.13893911	          0.14293365	          0.13351324	          0.05058309	          0.05001278	          0.12752569	          0.47784362	          0.22639565	          0.13694096	          0.24678873	          0.11119455	          0.05771587	          0.56422336	          0.66921402	          0.62240852	          0.07644471	          0.17479892	          0.18861326	          0.05001122	          0.05000949	          0.07057712	
          0.30390144	        -10.24168217	          0.26275706	          1.54466434	          0.76148563	          0.89405045	         -0.00276876	          6.21091223	          2.43753583	          3.51641813	        -49.58547215	        -14.91686452	          9.93340468	         12.55749167	         36.02078030	          4.66003858	          2.24463086	        -31.36853918	          1.75413981	         -2.39032132	         -0.03142050	          3.63441632	         -1.93374493	          2.78306265	         -6.27750976	        -13.90288594	          8.53353069	         33.35639801	         -5.89081104	        -13.55669157	          5.57164190	         40.89267184	          0.06505911	          0.05008135	          0.05017382	          0.09046405	          0.06873616	          0.05720971	          0.08406990	          0.07833366	          0.05020139	          0.07553700	          0.24938666	          0.46137593	          0.31209039	          0.06901895	          0.05022405	          0.05002504	          0.98810437	          0.58182539	          0.20360128	          0.05015684	          0.05004423	          0.05002035	          0.42827318	          0.60825514	          0.30276360	          0.26692923	          0.07867143	          0.81291119	          0.05001521	          0.05001116	          0.05001009	          0.09468758	          0.10987446	          0.07637271	          0.11357681	          0.12866098	          0.12793702	          0.17918662	          0.06669031	          0.08100408	          0.31406197	          0.67766209	          0.73265015	          0.52696827	          0.44438217	          0.37641654	          0.31465178	          0.16426283	          0.21839705	          0.59594423	          0.07110333	          0.47334979	          0.05007686	          0.05020098	          0.05481036	          0.25268458	          0.44489010	          0.42609654	          0.30619723	          0.05019058	          0.05697272	          0.05207636	          0.41766965	          0.32735405	          0.31709113	          0.05010918	          0.05006521	          0.26105217	          0.05021144	          0.34273929	          0.05020070	          0.17316162	          0.17531014	          0.16898763	          0.05000357	          0.05000549	          0.14367343	          0.47975048	          0.20677976	          0.12505003	          0.22526490	          0.10149731	          0.05268250	          0.51504589	          0.61084217	          0.56814434	          0.06979475	          0.15955219	          0.18593784	          0.05000795	          0.05000524	          0.06444697	
